<svg class="typst-doc" viewBox="0 0 583.9169745826772 583.9169745826772" width="583.9169745826772pt" height="583.9169745826772pt" xmlns="http://www.w3.org/2000/svg" xmlns:xlink="http://www.w3.org/1999/xlink" xmlns:h5="http://www.w3.org/1999/xhtml">
    <g>
        <g transform="translate(70.86614173228347 70.86614173228347)">
            <g class="typst-group">
                <g>
                    <g transform="translate(24.80314960629921 20.531147811023637)">
                        <path class="typst-shape" fill="none" stroke="#aaaaaa" stroke-width="1" stroke-linecap="butt" stroke-linejoin="miter" stroke-miterlimit="4" d="M 0 396.8504 C 0 396.8504 0 0 0 0 "/>
                    </g>
                    <g transform="translate(74.40944881889764 20.531147811023637)">
                        <path class="typst-shape" fill="none" stroke="#aaaaaa" stroke-width="1" stroke-linecap="butt" stroke-linejoin="miter" stroke-miterlimit="4" d="M 0 396.8504 C 0 396.8504 0 0 0 0 "/>
                    </g>
                    <g transform="translate(124.01574803149606 20.531147811023637)">
                        <path class="typst-shape" fill="none" stroke="#aaaaaa" stroke-width="1" stroke-linecap="butt" stroke-linejoin="miter" stroke-miterlimit="4" d="M 0 396.8504 C 0 396.8504 0 0 0 0 "/>
                    </g>
                    <g transform="translate(173.6220472440945 20.531147811023637)">
                        <path class="typst-shape" fill="none" stroke="#aaaaaa" stroke-width="1" stroke-linecap="butt" stroke-linejoin="miter" stroke-miterlimit="4" d="M 0 396.8504 C 0 396.8504 0 0 0 0 "/>
                    </g>
                    <g transform="translate(223.22834645669292 20.531147811023637)">
                        <path class="typst-shape" fill="none" stroke="#aaaaaa" stroke-width="1" stroke-linecap="butt" stroke-linejoin="miter" stroke-miterlimit="4" d="M 0 396.8504 C 0 396.8504 0 0 0 0 "/>
                    </g>
                    <g transform="translate(272.8346456692913 20.531147811023637)">
                        <path class="typst-shape" fill="none" stroke="#aaaaaa" stroke-width="1" stroke-linecap="butt" stroke-linejoin="miter" stroke-miterlimit="4" d="M 0 396.8504 C 0 396.8504 0 0 0 0 "/>
                    </g>
                    <g transform="translate(322.4409448818898 20.531147811023637)">
                        <path class="typst-shape" fill="none" stroke="#aaaaaa" stroke-width="1" stroke-linecap="butt" stroke-linejoin="miter" stroke-miterlimit="4" d="M 0 396.8504 C 0 396.8504 0 0 0 0 "/>
                    </g>
                    <g transform="translate(372.0472440944882 20.531147811023637)">
                        <path class="typst-shape" fill="none" stroke="#aaaaaa" stroke-width="1" stroke-linecap="butt" stroke-linejoin="miter" stroke-miterlimit="4" d="M 0 396.8504 C 0 396.8504 0 0 0 0 "/>
                    </g>
                    <g transform="translate(421.65354330708664 20.531147811023637)">
                        <path class="typst-shape" fill="none" stroke="#aaaaaa" stroke-width="1" stroke-linecap="butt" stroke-linejoin="miter" stroke-miterlimit="4" d="M 0 396.8504 C 0 396.8504 0 0 0 0 "/>
                    </g>
                    <g transform="translate(24.80314960629921 417.381541511811)">
                        <path class="typst-shape" fill="none" stroke="#aaaaaa" stroke-width="1" stroke-linecap="butt" stroke-linejoin="miter" stroke-miterlimit="4" d="M 0 0 C 0 0 396.8504 0 396.8504 0 "/>
                    </g>
                    <g transform="translate(24.80314960629921 367.7752422992126)">
                        <path class="typst-shape" fill="none" stroke="#aaaaaa" stroke-width="1" stroke-linecap="butt" stroke-linejoin="miter" stroke-miterlimit="4" d="M 0 0 C 0 0 396.8504 0 396.8504 0 "/>
                    </g>
                    <g transform="translate(24.80314960629921 318.1689430866142)">
                        <path class="typst-shape" fill="none" stroke="#aaaaaa" stroke-width="1" stroke-linecap="butt" stroke-linejoin="miter" stroke-miterlimit="4" d="M 0 0 C 0 0 396.8504 0 396.8504 0 "/>
                    </g>
                    <g transform="translate(24.80314960629921 268.56264387401575)">
                        <path class="typst-shape" fill="none" stroke="#aaaaaa" stroke-width="1" stroke-linecap="butt" stroke-linejoin="miter" stroke-miterlimit="4" d="M 0 0 C 0 0 396.8504 0 396.8504 0 "/>
                    </g>
                    <g transform="translate(24.80314960629921 218.95634466141732)">
                        <path class="typst-shape" fill="none" stroke="#aaaaaa" stroke-width="1" stroke-linecap="butt" stroke-linejoin="miter" stroke-miterlimit="4" d="M 0 0 C 0 0 396.8504 0 396.8504 0 "/>
                    </g>
                    <g transform="translate(24.80314960629921 169.35004544881892)">
                        <path class="typst-shape" fill="none" stroke="#aaaaaa" stroke-width="1" stroke-linecap="butt" stroke-linejoin="miter" stroke-miterlimit="4" d="M 0 0 C 0 0 396.8504 0 396.8504 0 "/>
                    </g>
                    <g transform="translate(24.80314960629921 119.74374623622049)">
                        <path class="typst-shape" fill="none" stroke="#aaaaaa" stroke-width="1" stroke-linecap="butt" stroke-linejoin="miter" stroke-miterlimit="4" d="M 0 0 C 0 0 396.8504 0 396.8504 0 "/>
                    </g>
                    <g transform="translate(24.80314960629921 70.13744702362206)">
                        <path class="typst-shape" fill="none" stroke="#aaaaaa" stroke-width="1" stroke-linecap="butt" stroke-linejoin="miter" stroke-miterlimit="4" d="M 0 0 C 0 0 396.8504 0 396.8504 0 "/>
                    </g>
                    <g transform="translate(24.80314960629921 20.531147811023637)">
                        <path class="typst-shape" fill="none" stroke="#aaaaaa" stroke-width="1" stroke-linecap="butt" stroke-linejoin="miter" stroke-miterlimit="4" d="M 0 0 C 0 0 396.8504 0 396.8504 0 "/>
                    </g>
                    <g transform="translate(0 218.95634466141732)">
                        <path class="typst-shape" fill="none" stroke="#000000" stroke-width="3" stroke-linecap="butt" stroke-linejoin="miter" stroke-miterlimit="4" d="M 0 0 C 0 0 436.4327 0 436.4327 0 "/>
                    </g>
                    <g transform="translate(436.51539977952757 216.83036040944882)">
                        <path class="typst-shape" fill="#000000" fill-rule="nonzero" stroke="#000000" stroke-width="3" stroke-linecap="butt" stroke-linejoin="miter" stroke-miterlimit="4" d="M 5.6692915 2.1259842 C 5.6692915 2.1259842 0 0 0 0 C 0 0 1.4173229 2.1259842 1.4173229 2.1259842 C 1.4173229 2.1259842 0 4.2519684 0 4.2519684 C 0 4.2519684 0 4.2519684 0 4.2519684 C 0 4.2519684 5.6692915 2.1259842 5.6692915 2.1259842 C 5.6692915 2.1259842 5.6692915 2.1259842 5.6692915 2.1259842 Z "/>
                    </g>
                    <g transform="translate(223.22834645669292 5.751968581320202)">
                        <path class="typst-shape" fill="none" stroke="#000000" stroke-width="3" stroke-linecap="butt" stroke-linejoin="miter" stroke-miterlimit="4" d="M 0 436.4327 C 0 436.4327 0 0 0 0 "/>
                    </g>
                    <g transform="translate(221.10236220472441 0)">
                        <path class="typst-shape" fill="#000000" fill-rule="nonzero" stroke="#000000" stroke-width="3" stroke-linecap="butt" stroke-linejoin="miter" stroke-miterlimit="4" d="M 2.1259842 0 C 2.1259842 0 0 5.6692915 0 5.6692915 C 0 5.6692915 2.1259842 4.2519684 2.1259842 4.2519684 C 2.1259842 4.2519684 4.2519684 5.6692915 4.2519684 5.6692915 C 4.2519684 5.6692915 4.2519684 5.6692915 4.2519684 5.6692915 C 4.2519684 5.6692915 2.1259842 0 2.1259842 0 C 2.1259842 0 2.1259842 0 2.1259842 0 Z "/>
                    </g>
                    <g transform="translate(74.40944881889764 70.13744702362206)">
                        <path class="typst-shape" fill="#0074d933" fill-rule="nonzero" stroke="#0074d9" stroke-width="3" stroke-linecap="butt" stroke-linejoin="miter" stroke-miterlimit="4" d="M 99.2126 0 C 99.2126 0 248.0315 49.6063 248.0315 49.6063 C 248.0315 49.6063 297.6378 198.4252 297.6378 198.4252 C 297.6378 198.4252 99.2126 297.6378 99.2126 297.6378 C 99.2126 297.6378 0 148.8189 0 148.8189 C 0 148.8189 0 148.8189 0 148.8189 C 0 148.8189 99.2126 0 99.2126 0 C 99.2126 0 99.2126 0 99.2126 0 Z "/>
                    </g>
                    <g transform="translate(223.22834645669292 125.30404457107404)">
                        <path class="typst-shape" fill="none" stroke="#b32e26" stroke-width="3" stroke-linecap="butt" stroke-linejoin="miter" stroke-miterlimit="4" d="M 0 93.6523 C 0 93.6523 140.47845 0 140.47845 0 "/>
                    </g>
                    <g transform="translate(362.59630432440946 122.11342639370079)">
                        <path class="typst-shape" fill="#000000" fill-rule="nonzero" stroke="#b32e26" stroke-width="3" stroke-linecap="butt" stroke-linejoin="miter" stroke-miterlimit="4" d="M 5.8964195 0 C 5.8964195 0 0 1.3758312 0 1.3758312 C 0 1.3758312 2.3585677 2.3585677 2.3585677 2.3585677 C 2.3585677 2.3585677 2.3585677 4.913683 2.3585677 4.913683 C 2.3585677 4.913683 2.3585677 4.913683 2.3585677 4.913683 C 2.3585677 4.913683 5.8964195 0 5.8964195 0 C 5.8964195 0 5.8964195 0 5.8964195 0 Z "/>
                    </g>
                </g>
            </g>
        </g>
    </g>
</svg>
