<svg class="typst-doc" viewBox="0 0 753.2887198213674 687.0196939052795" width="753.2887198213674pt" height="687.0196939052795pt" xmlns="http://www.w3.org/2000/svg" xmlns:xlink="http://www.w3.org/1999/xlink" xmlns:h5="http://www.w3.org/1999/xhtml">
    <g>
        <g transform="translate(70.86614173228347 70.86614173228347)">
            <g class="typst-group">
                <g>
                    <g transform="translate(107.35302132800653 74.21850836996258)">
                        <path class="typst-shape" fill="none" stroke="#aaaaaa" stroke-width="1" stroke-linecap="butt" stroke-linejoin="miter" stroke-miterlimit="4" d="M 0 396.8504 C 0 396.8504 0 0 0 0 "/>
                    </g>
                    <g transform="translate(156.95932054060495 74.21850836996258)">
                        <path class="typst-shape" fill="none" stroke="#aaaaaa" stroke-width="1" stroke-linecap="butt" stroke-linejoin="miter" stroke-miterlimit="4" d="M 0 396.8504 C 0 396.8504 0 0 0 0 "/>
                    </g>
                    <g transform="translate(206.56561975320338 74.21850836996258)">
                        <path class="typst-shape" fill="none" stroke="#aaaaaa" stroke-width="1" stroke-linecap="butt" stroke-linejoin="miter" stroke-miterlimit="4" d="M 0 396.8504 C 0 396.8504 0 0 0 0 "/>
                    </g>
                    <g transform="translate(256.1719189658018 74.21850836996258)">
                        <path class="typst-shape" fill="none" stroke="#aaaaaa" stroke-width="1" stroke-linecap="butt" stroke-linejoin="miter" stroke-miterlimit="4" d="M 0 396.8504 C 0 396.8504 0 0 0 0 "/>
                    </g>
                    <g transform="translate(305.7782181784002 74.21850836996258)">
                        <path class="typst-shape" fill="none" stroke="#aaaaaa" stroke-width="1" stroke-linecap="butt" stroke-linejoin="miter" stroke-miterlimit="4" d="M 0 396.8504 C 0 396.8504 0 0 0 0 "/>
                    </g>
                    <g transform="translate(355.38451739099867 74.21850836996258)">
                        <path class="typst-shape" fill="none" stroke="#aaaaaa" stroke-width="1" stroke-linecap="butt" stroke-linejoin="miter" stroke-miterlimit="4" d="M 0 396.8504 C 0 396.8504 0 0 0 0 "/>
                    </g>
                    <g transform="translate(404.99081660359707 74.21850836996258)">
                        <path class="typst-shape" fill="none" stroke="#aaaaaa" stroke-width="1" stroke-linecap="butt" stroke-linejoin="miter" stroke-miterlimit="4" d="M 0 396.8504 C 0 396.8504 0 0 0 0 "/>
                    </g>
                    <g transform="translate(454.5971158161954 74.21850836996258)">
                        <path class="typst-shape" fill="none" stroke="#aaaaaa" stroke-width="1" stroke-linecap="butt" stroke-linejoin="miter" stroke-miterlimit="4" d="M 0 396.8504 C 0 396.8504 0 0 0 0 "/>
                    </g>
                    <g transform="translate(504.20341502879387 74.21850836996258)">
                        <path class="typst-shape" fill="none" stroke="#aaaaaa" stroke-width="1" stroke-linecap="butt" stroke-linejoin="miter" stroke-miterlimit="4" d="M 0 396.8504 C 0 396.8504 0 0 0 0 "/>
                    </g>
                    <g transform="translate(107.35302132800653 471.06890207074997)">
                        <path class="typst-shape" fill="none" stroke="#aaaaaa" stroke-width="1" stroke-linecap="butt" stroke-linejoin="miter" stroke-miterlimit="4" d="M 0 0 C 0 0 396.8504 0 396.8504 0 "/>
                    </g>
                    <g transform="translate(107.35302132800653 421.46260285815157)">
                        <path class="typst-shape" fill="none" stroke="#aaaaaa" stroke-width="1" stroke-linecap="butt" stroke-linejoin="miter" stroke-miterlimit="4" d="M 0 0 C 0 0 396.8504 0 396.8504 0 "/>
                    </g>
                    <g transform="translate(107.35302132800653 371.8563036455531)">
                        <path class="typst-shape" fill="none" stroke="#aaaaaa" stroke-width="1" stroke-linecap="butt" stroke-linejoin="miter" stroke-miterlimit="4" d="M 0 0 C 0 0 396.8504 0 396.8504 0 "/>
                    </g>
                    <g transform="translate(107.35302132800653 322.2500044329547)">
                        <path class="typst-shape" fill="none" stroke="#aaaaaa" stroke-width="1" stroke-linecap="butt" stroke-linejoin="miter" stroke-miterlimit="4" d="M 0 0 C 0 0 396.8504 0 396.8504 0 "/>
                    </g>
                    <g transform="translate(107.35302132800653 272.64370522035625)">
                        <path class="typst-shape" fill="none" stroke="#aaaaaa" stroke-width="1" stroke-linecap="butt" stroke-linejoin="miter" stroke-miterlimit="4" d="M 0 0 C 0 0 396.8504 0 396.8504 0 "/>
                    </g>
                    <g transform="translate(107.35302132800653 223.03740600775785)">
                        <path class="typst-shape" fill="none" stroke="#aaaaaa" stroke-width="1" stroke-linecap="butt" stroke-linejoin="miter" stroke-miterlimit="4" d="M 0 0 C 0 0 396.8504 0 396.8504 0 "/>
                    </g>
                    <g transform="translate(107.35302132800653 173.43110679515942)">
                        <path class="typst-shape" fill="none" stroke="#aaaaaa" stroke-width="1" stroke-linecap="butt" stroke-linejoin="miter" stroke-miterlimit="4" d="M 0 0 C 0 0 396.8504 0 396.8504 0 "/>
                    </g>
                    <g transform="translate(107.35302132800653 123.82480758256101)">
                        <path class="typst-shape" fill="none" stroke="#aaaaaa" stroke-width="1" stroke-linecap="butt" stroke-linejoin="miter" stroke-miterlimit="4" d="M 0 0 C 0 0 396.8504 0 396.8504 0 "/>
                    </g>
                    <g transform="translate(107.35302132800653 74.21850836996258)">
                        <path class="typst-shape" fill="none" stroke="#aaaaaa" stroke-width="1" stroke-linecap="butt" stroke-linejoin="miter" stroke-miterlimit="4" d="M 0 0 C 0 0 396.8504 0 396.8504 0 "/>
                    </g>
                    <g transform="translate(82.54987172170732 272.64370522035625)">
                        <path class="typst-shape" fill="none" stroke="#000000" stroke-width="3" stroke-linecap="butt" stroke-linejoin="miter" stroke-miterlimit="4" d="M 0 0 C 0 0 436.4327 0 436.4327 0 "/>
                    </g>
                    <g transform="translate(519.0652715012349 270.51772096838783)">
                        <path class="typst-shape" fill="#000000" fill-rule="nonzero" stroke="#000000" stroke-width="3" stroke-linecap="butt" stroke-linejoin="miter" stroke-miterlimit="4" d="M 5.6692915 2.1259842 C 5.6692915 2.1259842 0 0 0 0 C 0 0 1.4173229 2.1259842 1.4173229 2.1259842 C 1.4173229 2.1259842 0 4.2519684 0 4.2519684 C 0 4.2519684 0 4.2519684 0 4.2519684 C 0 4.2519684 5.6692915 2.1259842 5.6692915 2.1259842 C 5.6692915 2.1259842 5.6692915 2.1259842 5.6692915 2.1259842 Z "/>
                    </g>
                    <g transform="translate(305.7782181784002 59.43932914025915)">
                        <path class="typst-shape" fill="none" stroke="#000000" stroke-width="3" stroke-linecap="butt" stroke-linejoin="miter" stroke-miterlimit="4" d="M 0 436.4327 C 0 436.4327 0 0 0 0 "/>
                    </g>
                    <g transform="translate(303.6522339264318 53.68736055893894)">
                        <path class="typst-shape" fill="#000000" fill-rule="nonzero" stroke="#000000" stroke-width="3" stroke-linecap="butt" stroke-linejoin="miter" stroke-miterlimit="4" d="M 2.1259842 0 C 2.1259842 0 0 5.6692915 0 5.6692915 C 0 5.6692915 2.1259842 4.2519684 2.1259842 4.2519684 C 2.1259842 4.2519684 4.2519684 5.6692915 4.2519684 5.6692915 C 4.2519684 5.6692915 4.2519684 5.6692915 4.2519684 5.6692915 C 4.2519684 5.6692915 2.1259842 0 2.1259842 0 C 2.1259842 0 2.1259842 0 2.1259842 0 Z "/>
                    </g>
                    <g transform="translate(156.95932054060495 123.82480758256101)">
                        <path class="typst-shape" fill="#0074d933" fill-rule="nonzero" stroke="#0074d9" stroke-width="3" stroke-linecap="butt" stroke-linejoin="miter" stroke-miterlimit="4" d="M 99.2126 0 C 99.2126 0 248.0315 49.6063 248.0315 49.6063 C 248.0315 49.6063 297.6378 198.4252 297.6378 198.4252 C 297.6378 198.4252 99.2126 297.6378 99.2126 297.6378 C 99.2126 297.6378 0 148.8189 0 148.8189 C 0 148.8189 0 148.8189 0 148.8189 C 0 148.8189 99.2126 0 99.2126 0 C 99.2126 0 99.2126 0 99.2126 0 Z "/>
                    </g>
                    <g transform="translate(305.7782181784002 178.991405130013)">
                        <path class="typst-shape" fill="none" stroke="#b32e26" stroke-width="3" stroke-linecap="butt" stroke-linejoin="miter" stroke-miterlimit="4" d="M 0 93.6523 C 0 93.6523 140.47845 0 140.47845 0 "/>
                    </g>
                    <g transform="translate(445.14617604611675 175.80078695263975)">
                        <path class="typst-shape" fill="#000000" fill-rule="nonzero" stroke="#b32e26" stroke-width="3" stroke-linecap="butt" stroke-linejoin="miter" stroke-miterlimit="4" d="M 5.8964195 0 C 5.8964195 0 0 1.3758312 0 1.3758312 C 0 1.3758312 2.3585677 2.3585677 2.3585677 2.3585677 C 2.3585677 2.3585677 2.3585677 4.913683 2.3585677 4.913683 C 2.3585677 4.913683 2.3585677 4.913683 2.3585677 4.913683 C 2.3585677 4.913683 5.8964195 0 5.8964195 0 C 5.8964195 0 5.8964195 0 5.8964195 0 Z "/>
                    </g>
                    <g transform="translate(0 297.6377952755906)">
                        <path class="typst-shape" fill="none" stroke="#000000" stroke-width="3" stroke-linecap="butt" stroke-linejoin="miter" stroke-miterlimit="4" d="M 0 0 C 0 0 165.09975 247.64961 165.09975 247.64961 "/>
                    </g>
                    <g transform="translate(74.40944881889764 248.03149606299212)">
                        <path class="typst-shape" fill="none" stroke="#000000" stroke-width="3" stroke-linecap="butt" stroke-linejoin="miter" stroke-miterlimit="4" d="M 0 0 C 0 0 165.09975 247.64961 165.09975 247.64961 "/>
                    </g>
                    <g transform="translate(148.8188976377953 198.4251968503937)">
                        <path class="typst-shape" fill="none" stroke="#000000" stroke-width="3" stroke-linecap="butt" stroke-linejoin="miter" stroke-miterlimit="4" d="M 0 0 C 0 0 165.09975 247.64961 165.09975 247.64961 "/>
                    </g>
                    <g transform="translate(223.22834645669292 148.8188976377953)">
                        <path class="typst-shape" fill="none" stroke="#000000" stroke-width="3" stroke-linecap="butt" stroke-linejoin="miter" stroke-miterlimit="4" d="M 0 0 C 0 0 165.09975 247.64961 165.09975 247.64961 "/>
                    </g>
                    <g transform="translate(297.6377952755906 99.21259842519684)">
                        <path class="typst-shape" fill="none" stroke="#000000" stroke-width="3" stroke-linecap="butt" stroke-linejoin="miter" stroke-miterlimit="4" d="M 0 0 C 0 0 165.09975 247.64961 165.09975 247.64961 "/>
                    </g>
                    <g transform="translate(372.0472440944882 49.60629921259845)">
                        <path class="typst-shape" fill="none" stroke="#000000" stroke-width="3" stroke-linecap="butt" stroke-linejoin="miter" stroke-miterlimit="4" d="M 0 0 C 0 0 165.09975 247.64961 165.09975 247.64961 "/>
                    </g>
                    <g transform="translate(446.45669291338584 0)">
                        <path class="typst-shape" fill="none" stroke="#000000" stroke-width="3" stroke-linecap="butt" stroke-linejoin="miter" stroke-miterlimit="4" d="M 0 0 C 0 0 165.09975 247.64961 165.09975 247.64961 "/>
                    </g>
                </g>
            </g>
        </g>
    </g>
</svg>
