<?xml version="1.0" encoding="UTF-8" standalone="no"?>
<!-- Created with Inkscape (http://www.inkscape.org/) -->

<svg
   width="48.000172mm"
   height="48.000172mm"
   viewBox="0 0 48.000172 48.000172"
   version="1.1"
   id="svg1"
   xml:space="preserve"
   xmlns="http://www.w3.org/2000/svg"
   xmlns:svg="http://www.w3.org/2000/svg"><defs
     id="defs1" /><g
     id="layer2"><path
       id="rect19"
       style="display:inline;opacity:1;fill:#73b5a7;fill-opacity:0.996078;stroke-width:0.264583"
       d="M 12.7,0 H 35.3 C 42.3358,0 48,5.6641999 48,12.7 V 35.3 C 48,42.3358 42.3358,48 35.3,48 H 12.7 C 12.700001,47.999999 0,35.3 0,35.3 V 12.7 C 0,5.6641999 5.6641999,0 12.7,0 Z" /><path
       id="path3"
       clip-path="none"
       style="display:inline;fill:#efcf81;fill-opacity:0.996078;stroke-width:0.264583"
       d="m 17.115234,0 c 0.0084,0.19974197 0.01136,0.39972375 0.02015,0.5994466 0.0798,1.813369 0.653086,3.5756516 1.136364,5.3252562 1.259041,4.5580902 2.141121,6.0368412 4.097941,10.3146152 0.904706,1.502093 1.753708,3.039037 2.714047,4.506185 0.924017,1.41166 1.934501,2.765035 2.934704,4.123779 0.967746,1.314653 1.960273,2.611337 2.968294,3.89537 0.942384,1.200418 1.928367,2.365794 2.882512,3.556888 2.721517,3.397377 2.585575,3.260693 5.146455,6.623885 1.810256,2.708024 2.550798,3.561244 3.868498,6.537586 3.1036,-2.311163 5.115967,-5.998689 5.115967,-10.182841 V 14.759822 C 46.216158,12.643154 44.291217,10.651915 42.467691,8.5705361 41.501507,7.4677282 40.54847,6.3530999 39.621353,5.2172525 38.682213,4.0666773 37.726328,2.9260973 36.8701,1.7125569 36.389738,1.0317356 36.055844,0.52382948 35.729084,0.02118734 35.585398,0.01642084 35.445057,0 35.30017,0 Z" /><path
       id="path2"
       clip-path="none"
       style="display:inline;fill:#ea845a;fill-opacity:0.996078;stroke-width:0.264583"
       d="m 24.391275,0 c 0.341735,0.67585792 0.713426,1.3370574 1.07642,2.0019449 0.783148,1.4344705 2.442189,4.4214791 3.318144,5.7231647 1.634244,2.4285204 3.323995,4.3621654 5.187797,6.6259524 1.145825,1.17554 2.268966,2.373444 3.437516,3.526399 1.28158,1.264477 2.613056,2.477053 3.911389,3.724321 2.51205,2.413247 4.365547,4.269745 6.677629,6.388757 V 12.7 c 0,-7.0357932 -5.664207,-12.7 -12.7,-12.7 z" /><path
       id="path4"
       clip-path="none"
       style="fill:#1f929d;fill-opacity:1;stroke-width:0.264583"
       d="M 2.8287678,4.6989379 C 1.0607573,6.8803589 0,9.660597 0,12.7 v 21.251932 c 0.42536738,0.512127 0.84319046,1.030673 1.2402343,1.564762 0.8383205,1.12768 1.5630189,2.3354 2.3445597,3.503145 1.4323502,2.47749 2.6740362,4.507887 3.900537,7.096208 0.1489383,0.314309 0.2864291,0.633637 0.4299479,0.950329 C 9.3915298,47.664291 11.00432,48.00017 12.7,48.00017 H 27.706318 C 27.356975,46.548518 26.992599,45.004484 26.92342,44.742487 26.561689,43.372519 26.146901,42.01705 25.758634,40.654365 24.438404,36.960534 24.041658,35.699729 22.514387,32.046622 21.905642,30.590554 21.28751,29.137006 20.605977,27.713553 19.923724,26.2886 19.186291,24.890009 18.425231,23.505541 17.679247,22.148497 16.931967,20.78914 16.086356,19.491833 15.236495,18.188006 14.258697,16.972078 13.344922,15.712219 12.285677,14.508901 11.244685,13.289243 10.167338,12.102103 7.266069,8.9051619 6.6145943,8.2832894 3.4871256,5.3159544 3.4314472,5.263127 2.9702117,4.8310848 2.8287678,4.6989379 Z" /><path
       id="path1"
       clip-path="none"
       style="display:inline;fill:#20468b;fill-opacity:1;stroke-width:0.264583"
       d="M 0,19.183325 V 35.30017 c 0,7.035793 5.6642068,12.7 12.7,12.7 h 6.82749 C 16.746446,46.593887 14.122179,44.715119 13.074654,41.814501 9.2978547,31.356469 9.5531798,22.425531 0,19.183325 Z" /></g><g
     id="layer1"><text
       xml:space="preserve"
       style="font-size:38.1px;font-family:TekutekuAL;-inkscape-font-specification:TekutekuAL;fill:#000000;fill-opacity:0.570927;stroke-width:0.264583"
       x="26.287928"
       y="38.008583"
       id="text1"><tspan
         id="tspan1"
         style="font-style:normal;font-variant:normal;font-weight:500;font-stretch:normal;font-size:38.1px;font-family:Ubuntu;-inkscape-font-specification:'Ubuntu Medium';text-align:center;text-anchor:middle;fill:#000000;fill-opacity:0.570927;stroke-width:0.264583"
         x="26.287928"
         y="38.008583">B</tspan></text><text
       xml:space="preserve"
       style="font-size:38.1px;font-family:TekutekuAL;-inkscape-font-specification:TekutekuAL;fill:#000000;fill-opacity:0.996078;stroke-width:0.264583"
       x="23.642092"
       y="36.421082"
       id="text46"><tspan
         id="tspan46"
         style="font-style:normal;font-variant:normal;font-weight:500;font-stretch:normal;font-size:38.1px;font-family:Ubuntu;-inkscape-font-specification:'Ubuntu Medium';text-align:center;text-anchor:middle;fill:#ffffff;stroke-width:0.264583"
         x="23.642092"
         y="36.421082">B</tspan></text></g></svg>
