<svg class="typst-doc" viewBox="0 0 791.9999999999999 612" width="791.9999999999999pt" height="612pt" xmlns="http://www.w3.org/2000/svg" xmlns:xlink="http://www.w3.org/1999/xlink" xmlns:h5="http://www.w3.org/1999/xhtml">
    <path class="typst-shape" fill="#ffffff" fill-rule="nonzero" d="M 0 0 L 0 612 L 792 612 L 792 0 Z "/>
    <g>
        <g transform="translate(14.173228346456693 14.173228346456693)">
            <g class="typst-group">
                <g>
                    <g transform="translate(0 0)">
                        <g class="typst-group">
                            <g>
                                <g transform="translate(0 0)">
                                    <path class="typst-shape" fill="none" stroke="#000000" stroke-width="1" stroke-linecap="butt" stroke-linejoin="miter" stroke-miterlimit="4" d="M 0 0 C 0 0 0 583.65356 0 583.65356 C 0 583.65356 763.65356 583.65356 763.65356 583.65356 C 763.65356 583.65356 763.65356 0 763.65356 0 C 763.65356 0 0 0 0 0 C 0 0 0 0 0 0 Z "/>
                                </g>
                                <g transform="translate(0 291.8267716535433)">
                                    <path class="typst-shape" fill="none" stroke="#000000" stroke-width="1" stroke-linecap="butt" stroke-linejoin="miter" stroke-miterlimit="4" d="M 0 0 C 0 0 763.65356 0 763.65356 0 "/>
                                </g>
                                <g transform="translate(0 291.8267716535433)">
                                    <path class="typst-shape" fill="#000000" fill-rule="nonzero" stroke="#000000" stroke-width="1" stroke-linecap="butt" stroke-linejoin="miter" stroke-miterlimit="4" d="M 0 0 C 0 0 0 291.82678 0 291.82678 C 0 291.82678 763.65356 291.82678 763.65356 291.82678 C 763.65356 291.82678 763.65356 0 763.65356 0 C 763.65356 0 0 0 0 0 C 0 0 0 0 0 0 Z "/>
                                </g>
                            </g>
                        </g>
                    </g>
                </g>
            </g>
        </g>
    </g>
</svg>
